<svg width="41" height="46" viewBox="0 0 41 46" fill="none" xmlns="http://www.w3.org/2000/svg">
<path d="M20.1413 4.01953C12.6782 4.01953 6.61305 9.62018 6.61305 16.5117V22.5287C6.61305 23.7988 6.02683 25.735 5.32787 26.8177L2.73496 30.7944C1.13412 33.2512 2.23892 35.9786 5.17004 36.8947C14.8878 39.8928 25.3722 39.8928 35.09 36.8947C37.8182 36.0619 39.0132 33.0846 37.5251 30.7944L34.9322 26.8177C34.2558 25.735 33.6696 23.7988 33.6696 22.5287V16.5117C33.6696 9.641 27.5819 4.01953 20.1413 4.01953Z" stroke="white" stroke-width="4" stroke-miterlimit="10" stroke-linecap="round"/>
<path d="M24.3121 4.62335C23.6132 4.43597 22.8917 4.29023 22.1476 4.20695C19.9831 3.9571 17.9088 4.10285 15.9697 4.62335C16.6236 3.08265 18.247 2 20.1409 2C22.0349 2 23.6583 3.08265 24.3121 4.62335Z" stroke="white" stroke-width="4" stroke-miterlimit="10" stroke-linecap="round" stroke-linejoin="round"/>
<path d="M26.9051 37.6445C26.9051 41.0799 23.8613 43.8906 20.141 43.8906C18.2922 43.8906 16.5786 43.1827 15.3611 42.0584C14.1436 40.9341 13.377 39.3518 13.377 37.6445" stroke="white" stroke-width="4" stroke-miterlimit="10"/>
</svg>
