<svg width="53" height="53" viewBox="0 0 53 53" fill="none" xmlns="http://www.w3.org/2000/svg">
<path d="M36.4382 5.62899V1.8276C36.4382 0.82851 35.5372 0 34.4507 0C33.3642 0 32.4632 0.82851 32.4632 1.8276V5.48279H15.2382V1.8276C15.2382 0.82851 14.3372 0 13.2507 0C12.1642 0 11.2632 0.82851 11.2632 1.8276V5.62899C4.10813 6.23819 0.63661 10.1614 0.106607 15.9854C0.053607 16.692 0.689611 17.2769 1.43161 17.2769H46.2698C47.0383 17.2769 47.6743 16.6677 47.5948 15.9854C47.0648 10.1614 43.5933 6.23819 36.4382 5.62899Z" fill="white"/>
<path d="M42.4005 33.5057C36.5439 33.5057 31.8004 37.8676 31.8004 43.2529C31.8004 45.0805 32.3569 46.8106 33.3374 48.2727C35.1659 51.0994 38.5315 53.0001 42.4005 53.0001C46.2695 53.0001 49.635 51.0994 51.4635 48.2727C52.444 46.8106 53.0005 45.0805 53.0005 43.2529C53.0005 37.8676 48.257 33.5057 42.4005 33.5057ZM47.886 42.2051L42.2415 47.0056C41.8705 47.3224 41.367 47.4929 40.89 47.4929C40.3865 47.4929 39.883 47.3224 39.4855 46.9568L36.8619 44.5444C36.0934 43.8377 36.0934 42.6681 36.8619 41.9614C37.6304 41.2547 38.9025 41.2547 39.671 41.9614L40.943 43.1311L45.183 39.5246C45.978 38.8423 47.25 38.8911 47.992 39.6221C48.734 40.3531 48.681 41.4984 47.886 42.2051Z" fill="white"/>
<path d="M45.0503 20.9321H2.65002C1.19251 20.9321 0 22.0285 0 23.3688V38.3794C0 45.6898 3.97502 50.5634 13.2501 50.5634H26.3147C28.1432 50.5634 29.4152 48.9307 28.8322 47.3468C28.3022 45.9335 27.8517 44.3739 27.8517 43.253C27.8517 35.8695 34.3972 29.8506 42.4267 29.8506C43.1953 29.8506 43.9638 29.8994 44.7058 30.0212C46.2958 30.2405 47.7268 29.0952 47.7268 27.6332V23.3931C47.7003 22.0285 46.5078 20.9321 45.0503 20.9321ZM16.4566 41.3279C15.9531 41.7666 15.2641 42.0346 14.5751 42.0346C13.8861 42.0346 13.1971 41.7666 12.6936 41.3279C12.2166 40.8649 11.9251 40.2314 11.9251 39.5978C11.9251 38.9642 12.2166 38.3307 12.6936 37.8677C12.9586 37.6484 13.2236 37.4778 13.5681 37.356C14.5486 36.9661 15.7146 37.1854 16.4566 37.8677C16.9336 38.3307 17.2251 38.9642 17.2251 39.5978C17.2251 40.2314 16.9336 40.8649 16.4566 41.3279ZM16.4566 32.7992C16.3241 32.8966 16.1916 32.9941 16.0591 33.0916C15.9001 33.189 15.7411 33.2621 15.5821 33.3109C15.4231 33.384 15.2641 33.4327 15.1051 33.4571C14.9196 33.4815 14.7341 33.5058 14.5751 33.5058C13.8861 33.5058 13.1971 33.2378 12.6936 32.7992C12.2166 32.3362 11.9251 31.7026 11.9251 31.069C11.9251 30.4355 12.2166 29.8019 12.6936 29.3389C13.3031 28.7784 14.2306 28.5104 15.1051 28.681C15.2641 28.7053 15.4231 28.7541 15.5821 28.8272C15.7411 28.8759 15.9001 28.949 16.0591 29.0465L16.4566 29.3389C16.9336 29.8019 17.2251 30.4355 17.2251 31.069C17.2251 31.7026 16.9336 32.3362 16.4566 32.7992ZM25.7316 32.7992C25.2281 33.2378 24.5391 33.5058 23.8501 33.5058C23.1611 33.5058 22.4721 33.2378 21.9686 32.7992C21.4916 32.3362 21.2001 31.7026 21.2001 31.069C21.2001 30.4355 21.4916 29.8019 21.9686 29.3389C22.9756 28.4373 24.7511 28.4373 25.7316 29.3389C26.2087 29.8019 26.5002 30.4355 26.5002 31.069C26.5002 31.7026 26.2087 32.3362 25.7316 32.7992Z" fill="white"/>
</svg>
