<svg width="31" height="24" viewBox="0 0 31 24" fill="none" xmlns="http://www.w3.org/2000/svg">
<path d="M19.5743 24C19.2559 24 18.9375 23.8768 18.6861 23.6128C18.2 23.1025 18.2 22.2577 18.6861 21.7474L27.9709 11.9978L18.6861 2.24822C18.2 1.73786 18.2 0.893127 18.6861 0.382769C19.1721 -0.12759 19.9766 -0.12759 20.4626 0.382769L30.6357 11.0651C31.1217 11.5754 31.1217 12.4201 30.6357 12.9305L20.4626 23.6128C20.2112 23.8768 19.8928 24 19.5743 24Z" fill="white"/>
<path d="M29.4635 13.3176H1.25698C0.569829 13.3176 0 12.7193 0 11.9977C0 11.2762 0.569829 10.6779 1.25698 10.6779H29.4635C30.1507 10.6779 30.7205 11.2762 30.7205 11.9977C30.7205 12.7193 30.1507 13.3176 29.4635 13.3176Z" fill="white"/>
</svg>
