<svg width="25" height="28" viewBox="0 0 25 28" fill="none" xmlns="http://www.w3.org/2000/svg">
<path d="M4.21792 23.1972C3.43587 23.1972 2.7051 22.9279 2.17946 22.4279C1.51279 21.7997 1.19228 20.8509 1.30767 19.8253L1.78202 15.6714C1.87177 14.8894 2.34613 13.8509 2.89741 13.2868L13.4231 2.14587C16.0513 -0.63618 18.7949 -0.713103 21.5769 1.9151C24.359 4.54331 24.4359 7.2869 21.8077 10.0689L11.282 21.2099C10.7436 21.7868 9.74356 22.3253 8.96151 22.4536L4.83331 23.1586C4.61536 23.1714 4.42305 23.1972 4.21792 23.1972ZM17.5384 1.90228C16.5513 1.90228 15.6923 2.51767 14.8205 3.44074L4.29484 14.5947C4.03843 14.8639 3.74356 15.5049 3.69228 15.8767L3.21792 20.0304C3.16664 20.4535 3.2692 20.7997 3.49997 21.0176C3.73074 21.2356 4.0769 21.3125 4.49997 21.2484L8.62818 20.5434C8.99997 20.4793 9.61536 20.1458 9.87177 19.8766L20.3974 8.73562C21.9872 7.04331 22.5641 5.47921 20.2436 3.29972C19.2179 2.31254 18.3333 1.90228 17.5384 1.90228Z" fill="white"/>
<path d="M19.3466 12.2097C19.321 12.2097 19.2825 12.2097 19.2569 12.2097C15.2569 11.8122 12.039 8.77382 11.4236 4.79946C11.3466 4.27382 11.7056 3.78664 12.2313 3.6969C12.7569 3.61997 13.2441 3.97895 13.3338 4.50459C13.821 7.60715 16.3338 9.99177 19.462 10.2995C19.9877 10.3507 20.3723 10.8251 20.321 11.3507C20.2569 11.8379 19.8338 12.2097 19.3466 12.2097Z" fill="white"/>
<path d="M24.0385 27.3381H0.961538C0.435897 27.3381 0 26.9022 0 26.3766C0 25.8509 0.435897 25.415 0.961538 25.415H24.0385C24.5641 25.415 25 25.8509 25 26.3766C25 26.9022 24.5641 27.3381 24.0385 27.3381Z" fill="white"/>
</svg>
