<svg width="1600" height="111" viewBox="0 0 1600 111" fill="none" xmlns="http://www.w3.org/2000/svg">
<rect width="1600" height="111" fill="url(#paint0_linear_14_2619)"/>
<path d="M65.4382 34.629V30.8276C65.4382 29.8285 64.5372 29 63.4507 29C62.3642 29 61.4632 29.8285 61.4632 30.8276V34.4828H44.2382V30.8276C44.2382 29.8285 43.3372 29 42.2507 29C41.1642 29 40.2632 29.8285 40.2632 30.8276V34.629C33.1081 35.2382 29.6366 39.1614 29.1066 44.9854C29.0536 45.692 29.6896 46.2769 30.4316 46.2769H75.2698C76.0383 46.2769 76.6743 45.6677 76.5948 44.9854C76.0648 39.1614 72.5933 35.2382 65.4382 34.629Z" fill="white"/>
<path d="M71.4004 62.5056C65.5438 62.5056 60.8003 66.8675 60.8003 72.2528C60.8003 74.0804 61.3568 75.8105 62.3373 77.2726C64.1658 80.0993 67.5313 82 71.4004 82C75.2694 82 78.6349 80.0993 80.4634 77.2726C81.4439 75.8105 82.0004 74.0804 82.0004 72.2528C82.0004 66.8675 77.2569 62.5056 71.4004 62.5056ZM76.8859 71.205L71.2414 76.0054C70.8704 76.3222 70.3668 76.4928 69.8898 76.4928C69.3863 76.4928 68.8828 76.3222 68.4853 75.9567L65.8618 73.5443C65.0933 72.8376 65.0933 71.668 65.8618 70.9613C66.6303 70.2546 67.9023 70.2546 68.6708 70.9613L69.9428 72.1309L74.1829 68.5245C74.9779 67.8422 76.2499 67.8909 76.9919 68.622C77.7339 69.353 77.6809 70.4983 76.8859 71.205Z" fill="white"/>
<path d="M74.0503 49.9321H31.65C30.1925 49.9321 29 51.0286 29 52.3688V67.3795C29 74.6899 32.975 79.5634 42.2501 79.5634H55.3147C57.1432 79.5634 58.4152 77.9308 57.8322 76.3469C57.3022 74.9335 56.8517 73.374 56.8517 72.2531C56.8517 64.8696 63.3972 58.8507 71.4267 58.8507C72.1953 58.8507 72.9638 58.8994 73.7058 59.0213C75.2958 59.2406 76.7268 58.0953 76.7268 56.6332V52.3932C76.7003 51.0286 75.5078 49.9321 74.0503 49.9321ZM45.4566 70.328C44.9531 70.7666 44.2641 71.0347 43.5751 71.0347C42.8861 71.0347 42.1971 70.7666 41.6936 70.328C41.2166 69.865 40.9251 69.2314 40.9251 68.5979C40.9251 67.9643 41.2166 67.3307 41.6936 66.8677C41.9586 66.6484 42.2236 66.4779 42.5681 66.356C43.5486 65.9661 44.7146 66.1854 45.4566 66.8677C45.9336 67.3307 46.2251 67.9643 46.2251 68.5979C46.2251 69.2314 45.9336 69.865 45.4566 70.328ZM45.4566 61.7992C45.3241 61.8967 45.1916 61.9942 45.0591 62.0916C44.9001 62.1891 44.7411 62.2622 44.5821 62.3109C44.4231 62.384 44.2641 62.4328 44.1051 62.4572C43.9196 62.4815 43.7341 62.5059 43.5751 62.5059C42.8861 62.5059 42.1971 62.2378 41.6936 61.7992C41.2166 61.3362 40.9251 60.7027 40.9251 60.0691C40.9251 59.4355 41.2166 58.802 41.6936 58.339C42.3031 57.7785 43.2306 57.5105 44.1051 57.681C44.2641 57.7054 44.4231 57.7541 44.5821 57.8272C44.7411 57.876 44.9001 57.9491 45.0591 58.0466L45.4566 58.339C45.9336 58.802 46.2251 59.4355 46.2251 60.0691C46.2251 60.7027 45.9336 61.3362 45.4566 61.7992ZM54.7316 61.7992C54.2281 62.2378 53.5391 62.5059 52.8501 62.5059C52.1611 62.5059 51.4721 62.2378 50.9686 61.7992C50.4916 61.3362 50.2001 60.7027 50.2001 60.0691C50.2001 59.4355 50.4916 58.802 50.9686 58.339C51.9756 57.4374 53.7511 57.4374 54.7316 58.339C55.2087 58.802 55.5002 59.4355 55.5002 60.0691C55.5002 60.7027 55.2087 61.3362 54.7316 61.7992Z" fill="white"/>
<defs>
<linearGradient id="paint0_linear_14_2619" x1="0" y1="0" x2="1578.51" y2="247.877" gradientUnits="userSpaceOnUse">
<stop offset="0.0989074" stop-color="white" stop-opacity="0.2"/>
<stop offset="1" stop-color="white" stop-opacity="0.1"/>
</linearGradient>
</defs>
</svg>
