<svg width="80" height="80" viewBox="0 0 80 80" fill="none" xmlns="http://www.w3.org/2000/svg">
<path d="M80 40C80 17.96 62.04 0 40 0C17.96 0 0 17.96 0 40C0 51.6 5 62.04 12.92 69.36C12.92 69.4 12.92 69.4 12.88 69.44C13.28 69.84 13.76 70.16 14.16 70.52C14.4 70.72 14.6 70.92 14.84 71.08C15.56 71.68 16.36 72.24 17.12 72.8C17.4 73 17.64 73.16 17.92 73.36C18.68 73.88 19.48 74.36 20.32 74.8C20.6 74.96 20.92 75.16 21.2 75.32C22 75.76 22.84 76.16 23.72 76.52C24.04 76.68 24.36 76.84 24.68 76.96C25.56 77.32 26.44 77.64 27.32 77.92C27.64 78.04 27.96 78.16 28.28 78.24C29.24 78.52 30.2 78.76 31.16 79C31.44 79.08 31.72 79.16 32.04 79.2C33.16 79.44 34.28 79.6 35.44 79.72C35.6 79.72 35.76 79.76 35.92 79.8C37.28 79.92 38.64 80 40 80C41.36 80 42.72 79.92 44.04 79.8C44.2 79.8 44.36 79.76 44.52 79.72C45.68 79.6 46.8 79.44 47.92 79.2C48.2 79.16 48.48 79.04 48.8 79C49.76 78.76 50.76 78.56 51.68 78.24C52 78.12 52.32 78 52.64 77.92C53.52 77.6 54.44 77.32 55.28 76.96C55.6 76.84 55.92 76.68 56.24 76.52C57.08 76.16 57.92 75.76 58.76 75.32C59.08 75.16 59.36 74.96 59.64 74.8C60.44 74.32 61.24 73.88 62.04 73.36C62.32 73.2 62.56 73 62.84 72.8C63.64 72.24 64.4 71.68 65.12 71.08C65.36 70.88 65.56 70.68 65.8 70.52C66.24 70.16 66.68 69.8 67.08 69.44C67.08 69.4 67.08 69.4 67.04 69.36C75 62.04 80 51.6 80 40ZM59.76 59.88C48.92 52.6 31.16 52.6 20.24 59.88C18.48 61.04 17.04 62.4 15.84 63.88C9.76 57.72 6 49.28 6 40C6 21.24 21.24 6 40 6C58.76 6 74 21.24 74 40C74 49.28 70.24 57.72 64.16 63.88C63 62.4 61.52 61.04 59.76 59.88Z" fill="white"/>
<path d="M40 19.7188C31.72 19.7188 25 26.4388 25 34.7188C25 42.8388 31.36 49.4388 39.8 49.6788H40.16H40.44H40.52C48.6 49.3988 54.96 42.8388 55 34.7188C55 26.4388 48.28 19.7188 40 19.7188Z" fill="white"/>
</svg>
